Patient4_TMGait_0pt5_01_right_12_EMG.mot
version=1
nRows=13
nColumns=33
inDegrees=no
endheader
time	1LAddLong	2LGlutMax	3LGlutMed	4LIliopsoas	5LSemiMemb	6LBicFemLong	7LRecFem	8LVastMed	9LVastLat	10LGasMed	11LTibAnt	12lTibPost	13LPeroneusLong	14LSol	15LExtDigLong	16LFlexDigLong	17RAddLong	18RGlutMax	19RGlutMed	20RIliopsoas	21RSemiMemb	22RBicFemLong	23RRecFem	24RVastMed	25RVastLat	26RGasMed	27RTibAnt	28RTibPost	29RPeroneusLong	30RSol	31RExtDigLong	32RFlexDigLong
15.952	-0.010681	-0.39307	-0.16327	-0.001373	0.028839	-0.054779	0	-0.008698	0.19012	-0.62759	0.10529	-0.11337	-0.046844	0.14038	0.084839	-0.13153	-0.018005	0.045319	0.112	-0.046844	0.14755	-0.20584	0.61127	0.057831	-0.16373	0.099487	-0.032196	0.11002	0.81543	0.45944	-0.001068	-0.032196
15.953	-0.005646	-0.42648	-0.15991	-0.001526	0.015259	-0.029449	-0.034027	-0.010071	0.15701	-0.62729	0.22324	-0.13443	-0.081482	0.15335	0.11887	-0.12497	0.019531	0.042572	-0.25696	-0.05249	0.067902	-0.24643	0.49881	0.058594	-0.19241	0.096283	0.037842	0.10071	0.91309	0.37323	-0.00061	-0.032349
15.954	-0.000305	-0.43335	-0.15442	-0.005646	0.007324	-0.004578	-0.10162	-0.007629	0.13825	-0.31464	0.23086	-0.16083	-0.20599	0.11505	0.099182	-0.11978	0.016022	0.025787	-0.51895	-0.048828	0.14175	-0.36835	0.13657	-0.052795	-0.13672	0.085602	0.093079	-0.031433	0.56213	0.11032	-0.001373	-0.03479
15.955	-0.002899	-0.41351	-0.14908	-0.006104	0.010071	0.033112	-0.15335	0.005951	0.12634	-0.027313	-0.12482	-0.20309	-0.18829	0.12512	0.3064	-0.11932	0.032349	-0.10025	-0.69168	-0.036469	0.13931	-0.47424	-0.33127	-0.17151	-0.09201	0.070496	0.037231	-0.027313	1.2451	-0.10727	0.002136	-0.032349
15.956	-0.002899	-0.43564	-0.13138	0.013428	0.006256	0.077057	-0.1561	0.008698	0.10407	0.0383	-0.1796	-0.20691	-0.069885	0.14191	0.88928	-0.11246	0.027313	-0.30273	-0.90241	0.000763	0.18005	-0.3096	-0.49759	-0.081635	0.1329	0.029449	0.042572	-0.017395	0.90836	-0.56274	-0.001068	-0.018005
15.957	-0.011139	-0.47623	-0.12741	0.011902	-0.007019	0.081177	-0.12009	0.009308	0.078278	-0.063019	-0.18539	-0.13397	0.007935	0.11856	0.12009	-0.103	-0.014954	-0.34164	-0.49606	-0.009918	0.14496	0.086365	-0.18463	-0.032349	0.14053	0.002747	0.04303	-0.014191	-1.1578	-0.67642	-0.001221	-0.016479
15.958	-0.023956	-0.49881	-0.13046	-0.018768	0.005646	0.097656	-0.11368	0.015411	0.096283	0.046539	-0.19241	-0.068054	0.06012	0.078278	-0.30304	-0.112	-0.031128	-0.35751	-0.053711	-0.034943	-0.004883	0.43228	-0.002289	0.040131	0.15503	0.002289	0.19241	-0.01297	-0.50812	-0.39032	0.00061	-0.010834
15.959	-0.024567	-0.54535	-0.1355	-0.008545	0.001526	0.10498	-0.018005	0.014954	0.093689	0.22736	-0.11887	-0.033417	-0.005035	0.053406	-0.98297	-0.11917	-0.007629	-0.44342	-0.024414	0.011902	-0.11108	0.10956	0.15717	0.027771	0.11444	0.006714	0.15381	-0.034943	0.037994	-0.42328	-0.000763	-0.01236
15.96	-0.023499	-0.55985	-0.14023	0.017853	-0.004272	0.11322	0.013733	0.019226	0.089264	0.31464	-0.047302	-0.014191	-0.13443	-0.011749	-1.008	-0.13153	-0.012817	-0.56244	-0.28046	-0.002899	-0.19134	0.037231	0.27237	0.071411	0.040588	0.020294	0.12955	-0.049744	-0.35156	-0.30197	0.000458	-0.010986
15.961	-0.010681	-0.5896	-0.14069	0.030365	-0.004578	0.092773	0.021667	0.026245	0.08728	0.011749	0.016479	0.004578	-0.15961	-0.03891	-0.36926	-0.10788	-0.014038	-0.74677	-0.045929	0.020752	-0.11063	-0.000305	0.42786	0.092926	-0.066986	0.023804	-0.063171	0.018005	-0.17227	-0.10483	0.005951	-0.008087
15.962	-0.003052	-0.62332	-0.12528	-0.00885	-0.004883	0.096741	-0.027313	0.023804	0.094604	-0.012665	-0.08316	0.020447	-0.09964	-0.062561	-0.21896	-0.092773	-0.01358	-0.80963	0.19791	0.072784	-0.010681	0.075836	0.49484	0.15762	-0.12024	0.018921	-0.2066	0.002594	-0.17487	-0.18692	-0.000458	-0.012665
15.963	-0.003357	-0.56839	-0.10269	0.007782	0.001068	0.073853	-0.10315	0.023499	0.096588	0.2153	-0.050049	0.043945	-0.082245	-0.087891	0.062103	-0.10971	-0.014496	-0.94696	0.20691	0.088959	0.09552	0.2388	0.37689	0.14984	0.044098	0.016937	-0.13794	-0.001373	0.38391	-0.41458	0.000305	-0.013123
15.964	0.013885	-0.5278	-0.10376	-0.012054	-0.015259	0.071411	-0.14877	0.022583	0.11032	0.15381	0.049591	0.054474	-0.095825	-0.064697	-0.33035	-0.097198	0.016785	-0.95169	0.13855	0.014801	0.25513	-0.12482	-0.033722	-0.077667	0.26215	0.014648	-0.16632	-0.006256	-0.043335	-0.39154	0.003357	-0.014343
